<?xml version="1.0" encoding="utf-8"?>
<!-- Generator: Adobe Illustrator 24.0.1, SVG Export Plug-In . SVG Version: 6.00 Build 0)  -->
<svg version="1.1" id="Layer_1" xmlns="http://www.w3.org/2000/svg" xmlns:xlink="http://www.w3.org/1999/xlink" x="0px" y="0px"
	 viewBox="0 0 44.99 50" style="enable-background:new 0 0 44.99 50;" xml:space="preserve">
<style type="text/css">
	.st0{fill:url(#SVGID_1_);}
	.st1{opacity:0.2;}
	.st2{fill:#FFFFFF;}
	.st3{opacity:0.35;}
	.st4{fill:#010101;}
</style>
<title>zincon-2020</title>
<g id="Layer_2_1_">
	<g id="Badges">
		
			<linearGradient id="SVGID_1_" gradientUnits="userSpaceOnUse" x1="39.6449" y1="15.58" x2="5.3532" y2="49.8817" gradientTransform="matrix(1 0 0 -1 0 52)">
			<stop  offset="0" style="stop-color:#00A1B0"/>
			<stop  offset="0.14" style="stop-color:#376397"/>
			<stop  offset="0.36" style="stop-color:#6A2A7D"/>
			<stop  offset="0.76" style="stop-color:#E73D5D"/>
			<stop  offset="1" style="stop-color:#F07E3F"/>
		</linearGradient>
		<path class="st0" d="M45,7.47C45,43.58,22.49,50,22.49,50S0,43.58,0,7.47C10.33-2.51,34.69-2.47,45,7.47z"/>
		<g class="st1">
			<path class="st2" d="M22.49,0v1.54l0,0c8.56,0,16.33,2.45,21,6.6c-0.12,14-3.81,25.36-10.71,33c-2.8,3.2-6.31,5.69-10.25,7.29
				c-3.88-1.56-7.34-4.01-10.11-7.14C3.61,31.7,1.62,18.11,1.54,8.14C6.17,4,13.93,1.54,22.48,1.54V0 M22.48,0
				C13.82,0,5.16,2.49,0,7.47C0,43.58,22.49,50,22.49,50S45,43.58,45,7.47C39.83,2.49,31.16,0,22.48,0z"/>
		</g>
		<g class="st3">
			<g>
				<path class="st4" d="M9.85,30.45c0-5.95,8.31-5.53,8.31-8.9c0.04-1.04-0.76-1.91-1.8-1.96c-0.12-0.01-0.24,0-0.36,0.02
					c-1.32,0-2.42,1.01-2.51,2.33l-3.84-0.78c0-2.31,1.8-5.51,6.47-5.51c3.91,0,6.46,2.31,6.46,5.73c0,4.84-7.52,6.34-7.52,7.62
					v0.39h7.4V33H9.85V30.45z"/>
				<path class="st4" d="M23.64,24.43c0-5,2.63-8.78,7.47-8.78s7.47,3.76,7.47,8.78s-2.6,8.72-7.47,8.72S23.64,29.44,23.64,24.43z
					 M34.06,24.43c0-2.9-1.18-4.82-3-4.82s-2.95,1.92-2.95,4.82s1.18,4.76,2.95,4.76S34.06,27.28,34.06,24.43z"/>
			</g>
		</g>
		<path class="st2" d="M8.83,28.91c0-5.95,8.3-5.53,8.3-8.9c0.04-1.04-0.76-1.91-1.8-1.96c-0.11,0-0.22,0-0.33,0.02
			c-1.32,0-2.42,1.02-2.51,2.34l-3.83-0.79c0-2.31,1.79-5.51,6.46-5.51c3.91,0,6.47,2.32,6.47,5.73c0,4.84-7.52,6.34-7.52,7.62v0.4
			h7.4v3.61H8.83V28.91z"/>
		<path class="st2" d="M22.62,22.89c0-5,2.63-8.78,7.47-8.78s7.47,3.77,7.47,8.78s-2.6,8.73-7.47,8.73S22.62,27.9,22.62,22.89z
			 M33.04,22.89c0-2.9-1.18-4.82-2.95-4.82s-2.95,1.93-2.95,4.82s1.18,4.77,2.95,4.77S33,25.74,33,22.89H33.04z"/>
	</g>
</g>
</svg>
